<svg xmlns="http://www.w3.org/2000/svg" version="1.1" xmlns:xlink="http://www.w3.org/1999/xlink" xmlns:svgjs="http://svgjs.com/svgjs" width="1440" height="560" preserveAspectRatio="none" viewBox="0 0 1440 560"><g mask="url(&quot;#SvgjsMask1003&quot;)" fill="none"><rect width="1440" height="560" x="0" y="0" fill="rgba(253, 210, 191, 1)"></rect><path d="M21.55 -34.33L86.5 3.17L86.5 78.17L21.55 115.67L-43.4 78.17L-43.4 3.17zM21.55 190.67L86.5 228.17L86.5 303.17L21.55 340.67L-43.4 303.17L-43.4 228.17zM281.37 190.67L346.32 228.17L346.32 303.17L281.37 340.67L216.41 303.17L216.41 228.17zM476.23 78.17L541.18 115.67L541.18 190.67L476.23 228.17L411.27 190.67L411.27 115.67zM476.23 303.17L541.18 340.67L541.18 415.67L476.23 453.17L411.27 415.67L411.27 340.67zM995.86 78.17L1060.81 115.67L1060.81 190.67L995.86 228.17L930.9 190.67L930.9 115.67zM930.9 415.67L995.86 453.17L995.86 528.17L930.9 565.67L865.95 528.17L865.95 453.17zM995.86 528.17L1060.81 565.67L1060.81 640.67L995.86 678.17L930.9 640.67L930.9 565.67zM1060.81 415.67L1125.76 453.17L1125.76 528.17L1060.81 565.67L995.86 528.17L995.86 453.17zM1190.72 415.67L1255.67 453.17L1255.67 528.17L1190.72 565.67L1125.76 528.17L1125.76 453.17zM1255.67 528.17L1320.62 565.67L1320.62 640.67L1255.67 678.17L1190.72 640.67L1190.72 565.67zM1385.58 303.17L1450.53 340.67L1450.53 415.67L1385.58 453.17L1320.63 415.67L1320.63 340.67zM1450.53 -34.33L1515.49 3.17L1515.49 78.17L1450.53 115.67L1385.58 78.17L1385.58 3.17zM1450.53 190.67L1515.49 228.17L1515.49 303.17L1450.53 340.67L1385.58 303.17L1385.58 228.17zM1515.49 528.17L1580.44 565.67L1580.44 640.67L1515.49 678.17L1450.53 640.67L1450.53 565.67z" stroke="rgba(255, 56, 56, 1)" stroke-width="2"></path><path d="M14.05 -34.33 a7.5 7.5 0 1 0 15 0 a7.5 7.5 0 1 0 -15 0zM79 3.17 a7.5 7.5 0 1 0 15 0 a7.5 7.5 0 1 0 -15 0zM79 78.17 a7.5 7.5 0 1 0 15 0 a7.5 7.5 0 1 0 -15 0zM14.05 115.67 a7.5 7.5 0 1 0 15 0 a7.5 7.5 0 1 0 -15 0zM-50.9 78.17 a7.5 7.5 0 1 0 15 0 a7.5 7.5 0 1 0 -15 0zM-50.9 3.17 a7.5 7.5 0 1 0 15 0 a7.5 7.5 0 1 0 -15 0zM14.05 190.67 a7.5 7.5 0 1 0 15 0 a7.5 7.5 0 1 0 -15 0zM79 228.17 a7.5 7.5 0 1 0 15 0 a7.5 7.5 0 1 0 -15 0zM79 303.17 a7.5 7.5 0 1 0 15 0 a7.5 7.5 0 1 0 -15 0zM14.05 340.67 a7.5 7.5 0 1 0 15 0 a7.5 7.5 0 1 0 -15 0zM-50.9 303.17 a7.5 7.5 0 1 0 15 0 a7.5 7.5 0 1 0 -15 0zM-50.9 228.17 a7.5 7.5 0 1 0 15 0 a7.5 7.5 0 1 0 -15 0zM273.87 190.67 a7.5 7.5 0 1 0 15 0 a7.5 7.5 0 1 0 -15 0zM338.82 228.17 a7.5 7.5 0 1 0 15 0 a7.5 7.5 0 1 0 -15 0zM338.82 303.17 a7.5 7.5 0 1 0 15 0 a7.5 7.5 0 1 0 -15 0zM273.87 340.67 a7.5 7.5 0 1 0 15 0 a7.5 7.5 0 1 0 -15 0zM208.91 303.17 a7.5 7.5 0 1 0 15 0 a7.5 7.5 0 1 0 -15 0zM208.91 228.17 a7.5 7.5 0 1 0 15 0 a7.5 7.5 0 1 0 -15 0zM468.73 78.17 a7.5 7.5 0 1 0 15 0 a7.5 7.5 0 1 0 -15 0zM533.68 115.67 a7.5 7.5 0 1 0 15 0 a7.5 7.5 0 1 0 -15 0zM533.68 190.67 a7.5 7.5 0 1 0 15 0 a7.5 7.5 0 1 0 -15 0zM468.73 228.17 a7.5 7.5 0 1 0 15 0 a7.5 7.5 0 1 0 -15 0zM403.77 190.67 a7.5 7.5 0 1 0 15 0 a7.5 7.5 0 1 0 -15 0zM403.77 115.67 a7.5 7.5 0 1 0 15 0 a7.5 7.5 0 1 0 -15 0zM468.73 303.17 a7.5 7.5 0 1 0 15 0 a7.5 7.5 0 1 0 -15 0zM533.68 340.67 a7.5 7.5 0 1 0 15 0 a7.5 7.5 0 1 0 -15 0zM533.68 415.67 a7.5 7.5 0 1 0 15 0 a7.5 7.5 0 1 0 -15 0zM468.73 453.17 a7.5 7.5 0 1 0 15 0 a7.5 7.5 0 1 0 -15 0zM403.77 415.67 a7.5 7.5 0 1 0 15 0 a7.5 7.5 0 1 0 -15 0zM403.77 340.67 a7.5 7.5 0 1 0 15 0 a7.5 7.5 0 1 0 -15 0zM988.36 78.17 a7.5 7.5 0 1 0 15 0 a7.5 7.5 0 1 0 -15 0zM1053.31 115.67 a7.5 7.5 0 1 0 15 0 a7.5 7.5 0 1 0 -15 0zM1053.31 190.67 a7.5 7.5 0 1 0 15 0 a7.5 7.5 0 1 0 -15 0zM988.36 228.17 a7.5 7.5 0 1 0 15 0 a7.5 7.5 0 1 0 -15 0zM923.4 190.67 a7.5 7.5 0 1 0 15 0 a7.5 7.5 0 1 0 -15 0zM923.4 115.67 a7.5 7.5 0 1 0 15 0 a7.5 7.5 0 1 0 -15 0zM923.4 415.67 a7.5 7.5 0 1 0 15 0 a7.5 7.5 0 1 0 -15 0zM988.36 453.17 a7.5 7.5 0 1 0 15 0 a7.5 7.5 0 1 0 -15 0zM988.36 528.17 a7.5 7.5 0 1 0 15 0 a7.5 7.5 0 1 0 -15 0zM923.4 565.67 a7.5 7.5 0 1 0 15 0 a7.5 7.5 0 1 0 -15 0zM858.45 528.17 a7.5 7.5 0 1 0 15 0 a7.5 7.5 0 1 0 -15 0zM858.45 453.17 a7.5 7.5 0 1 0 15 0 a7.5 7.5 0 1 0 -15 0zM1053.31 565.67 a7.5 7.5 0 1 0 15 0 a7.5 7.5 0 1 0 -15 0zM1053.31 640.67 a7.5 7.5 0 1 0 15 0 a7.5 7.5 0 1 0 -15 0zM988.36 678.17 a7.5 7.5 0 1 0 15 0 a7.5 7.5 0 1 0 -15 0zM923.4 640.67 a7.5 7.5 0 1 0 15 0 a7.5 7.5 0 1 0 -15 0zM1053.31 415.67 a7.5 7.5 0 1 0 15 0 a7.5 7.5 0 1 0 -15 0zM1118.26 453.17 a7.5 7.5 0 1 0 15 0 a7.5 7.5 0 1 0 -15 0zM1118.26 528.17 a7.5 7.5 0 1 0 15 0 a7.5 7.5 0 1 0 -15 0zM1183.22 415.67 a7.5 7.5 0 1 0 15 0 a7.5 7.5 0 1 0 -15 0zM1248.17 453.17 a7.5 7.5 0 1 0 15 0 a7.5 7.5 0 1 0 -15 0zM1248.17 528.17 a7.5 7.5 0 1 0 15 0 a7.5 7.5 0 1 0 -15 0zM1183.22 565.67 a7.5 7.5 0 1 0 15 0 a7.5 7.5 0 1 0 -15 0zM1313.12 565.67 a7.5 7.5 0 1 0 15 0 a7.5 7.5 0 1 0 -15 0zM1313.12 640.67 a7.5 7.5 0 1 0 15 0 a7.5 7.5 0 1 0 -15 0zM1248.17 678.17 a7.5 7.5 0 1 0 15 0 a7.5 7.5 0 1 0 -15 0zM1183.22 640.67 a7.5 7.5 0 1 0 15 0 a7.5 7.5 0 1 0 -15 0zM1378.08 303.17 a7.5 7.5 0 1 0 15 0 a7.5 7.5 0 1 0 -15 0zM1443.03 340.67 a7.5 7.5 0 1 0 15 0 a7.5 7.5 0 1 0 -15 0zM1443.03 415.67 a7.5 7.5 0 1 0 15 0 a7.5 7.5 0 1 0 -15 0zM1378.08 453.17 a7.5 7.5 0 1 0 15 0 a7.5 7.5 0 1 0 -15 0zM1313.13 415.67 a7.5 7.5 0 1 0 15 0 a7.5 7.5 0 1 0 -15 0zM1313.13 340.67 a7.5 7.5 0 1 0 15 0 a7.5 7.5 0 1 0 -15 0zM1443.03 -34.33 a7.5 7.5 0 1 0 15 0 a7.5 7.5 0 1 0 -15 0zM1507.99 3.17 a7.5 7.5 0 1 0 15 0 a7.5 7.5 0 1 0 -15 0zM1507.99 78.17 a7.5 7.5 0 1 0 15 0 a7.5 7.5 0 1 0 -15 0zM1443.03 115.67 a7.5 7.5 0 1 0 15 0 a7.5 7.5 0 1 0 -15 0zM1378.08 78.17 a7.5 7.5 0 1 0 15 0 a7.5 7.5 0 1 0 -15 0zM1378.08 3.17 a7.5 7.5 0 1 0 15 0 a7.5 7.5 0 1 0 -15 0zM1443.03 190.67 a7.5 7.5 0 1 0 15 0 a7.5 7.5 0 1 0 -15 0zM1507.99 228.17 a7.5 7.5 0 1 0 15 0 a7.5 7.5 0 1 0 -15 0zM1507.99 303.17 a7.5 7.5 0 1 0 15 0 a7.5 7.5 0 1 0 -15 0zM1378.08 228.17 a7.5 7.5 0 1 0 15 0 a7.5 7.5 0 1 0 -15 0zM1507.99 528.17 a7.5 7.5 0 1 0 15 0 a7.5 7.5 0 1 0 -15 0zM1572.94 565.67 a7.5 7.5 0 1 0 15 0 a7.5 7.5 0 1 0 -15 0zM1572.94 640.67 a7.5 7.5 0 1 0 15 0 a7.5 7.5 0 1 0 -15 0zM1507.99 678.17 a7.5 7.5 0 1 0 15 0 a7.5 7.5 0 1 0 -15 0zM1443.03 640.67 a7.5 7.5 0 1 0 15 0 a7.5 7.5 0 1 0 -15 0zM1443.03 565.67 a7.5 7.5 0 1 0 15 0 a7.5 7.5 0 1 0 -15 0z" fill="rgba(255, 56, 56, 1)"></path><path d="M77.19 27.93L120.5 52.93L120.5 102.93L77.19 127.93L33.89 102.93L33.89 52.93zM33.89 102.93L77.19 127.93L77.19 177.93L33.89 202.93L-9.41 177.93L-9.41 127.93zM33.89 252.93L77.19 277.93L77.19 327.93L33.89 352.93L-9.41 327.93L-9.41 277.93zM33.89 402.93L77.19 427.93L77.19 477.93L33.89 502.93L-9.41 477.93L-9.41 427.93zM163.8 27.93L207.1 52.93L207.1 102.93L163.8 127.93L120.5 102.93L120.5 52.93zM120.5 102.93L163.8 127.93L163.8 177.93L120.5 202.93L77.19 177.93L77.19 127.93zM163.8 327.93L207.1 352.93L207.1 402.93L163.8 427.93L120.5 402.93L120.5 352.93zM163.8 477.93L207.1 502.93L207.1 552.93L163.8 577.93L120.5 552.93L120.5 502.93zM207.1 402.93L250.4 427.93L250.4 477.93L207.1 502.93L163.8 477.93L163.8 427.93zM293.7 -47.07L337.01 -22.07L337.01 27.93L293.7 52.93L250.4 27.93L250.4 -22.07zM293.7 252.93L337.01 277.93L337.01 327.93L293.7 352.93L250.4 327.93L250.4 277.93zM337.01 477.93L380.31 502.93L380.31 552.93L337.01 577.93L293.7 552.93L293.7 502.93zM380.31 -47.07L423.61 -22.07L423.61 27.93L380.31 52.93L337.01 27.93L337.01 -22.07zM423.61 27.93L466.92 52.93L466.92 102.93L423.61 127.93L380.31 102.93L380.31 52.93zM380.31 402.93L423.61 427.93L423.61 477.93L380.31 502.93L337.01 477.93L337.01 427.93zM466.92 102.93L510.22 127.93L510.22 177.93L466.92 202.93L423.61 177.93L423.61 127.93zM510.22 177.93L553.52 202.93L553.52 252.93L510.22 277.93L466.92 252.93L466.92 202.93zM466.92 252.93L510.22 277.93L510.22 327.93L466.92 352.93L423.61 327.93L423.61 277.93zM510.22 327.93L553.52 352.93L553.52 402.93L510.22 427.93L466.92 402.93L466.92 352.93zM510.22 477.93L553.52 502.93L553.52 552.93L510.22 577.93L466.92 552.93L466.92 502.93zM553.52 102.93L596.82 127.93L596.82 177.93L553.52 202.93L510.22 177.93L510.22 127.93zM553.52 402.93L596.82 427.93L596.82 477.93L553.52 502.93L510.22 477.93L510.22 427.93zM596.82 477.93L640.13 502.93L640.13 552.93L596.82 577.93L553.52 552.93L553.52 502.93zM640.13 -47.07L683.43 -22.07L683.43 27.93L640.13 52.93L596.82 27.93L596.82 -22.07zM683.43 27.93L726.73 52.93L726.73 102.93L683.43 127.93L640.13 102.93L640.13 52.93zM640.13 102.93L683.43 127.93L683.43 177.93L640.13 202.93L596.82 177.93L596.82 127.93zM640.13 252.93L683.43 277.93L683.43 327.93L640.13 352.93L596.82 327.93L596.82 277.93zM640.13 402.93L683.43 427.93L683.43 477.93L640.13 502.93L596.82 477.93L596.82 427.93zM726.73 -47.07L770.03 -22.07L770.03 27.93L726.73 52.93L683.43 27.93L683.43 -22.07zM770.03 177.93L813.34 202.93L813.34 252.93L770.03 277.93L726.73 252.93L726.73 202.93zM770.03 327.93L813.34 352.93L813.34 402.93L770.03 427.93L726.73 402.93L726.73 352.93zM770.03 477.93L813.34 502.93L813.34 552.93L770.03 577.93L726.73 552.93L726.73 502.93zM813.34 -47.07L856.64 -22.07L856.64 27.93L813.34 52.93L770.03 27.93L770.03 -22.07zM856.64 27.93L899.94 52.93L899.94 102.93L856.64 127.93L813.34 102.93L813.34 52.93zM856.64 177.93L899.94 202.93L899.94 252.93L856.64 277.93L813.34 252.93L813.34 202.93zM856.64 477.93L899.94 502.93L899.94 552.93L856.64 577.93L813.34 552.93L813.34 502.93zM899.94 -47.07L943.24 -22.07L943.24 27.93L899.94 52.93L856.64 27.93L856.64 -22.07zM943.24 27.93L986.55 52.93L986.55 102.93L943.24 127.93L899.94 102.93L899.94 52.93zM899.94 252.93L943.24 277.93L943.24 327.93L899.94 352.93L856.64 327.93L856.64 277.93zM943.24 327.93L986.55 352.93L986.55 402.93L943.24 427.93L899.94 402.93L899.94 352.93zM899.94 402.93L943.24 427.93L943.24 477.93L899.94 502.93L856.64 477.93L856.64 427.93zM1029.85 177.93L1073.15 202.93L1073.15 252.93L1029.85 277.93L986.55 252.93L986.55 202.93zM986.55 402.93L1029.85 427.93L1029.85 477.93L986.55 502.93L943.24 477.93L943.24 427.93zM1029.85 477.93L1073.15 502.93L1073.15 552.93L1029.85 577.93L986.55 552.93L986.55 502.93zM1073.15 -47.07L1116.45 -22.07L1116.45 27.93L1073.15 52.93L1029.85 27.93L1029.85 -22.07zM1073.15 102.93L1116.45 127.93L1116.45 177.93L1073.15 202.93L1029.85 177.93L1029.85 127.93zM1073.15 252.93L1116.45 277.93L1116.45 327.93L1073.15 352.93L1029.85 327.93L1029.85 277.93zM1116.45 477.93L1159.76 502.93L1159.76 552.93L1116.45 577.93L1073.15 552.93L1073.15 502.93zM1203.06 27.93L1246.36 52.93L1246.36 102.93L1203.06 127.93L1159.76 102.93L1159.76 52.93zM1246.36 -47.07L1289.66 -22.07L1289.66 27.93L1246.36 52.93L1203.06 27.93L1203.06 -22.07zM1246.36 102.93L1289.66 127.93L1289.66 177.93L1246.36 202.93L1203.06 177.93L1203.06 127.93zM1246.36 252.93L1289.66 277.93L1289.66 327.93L1246.36 352.93L1203.06 327.93L1203.06 277.93zM1246.36 402.93L1289.66 427.93L1289.66 477.93L1246.36 502.93L1203.06 477.93L1203.06 427.93zM1289.66 477.93L1332.97 502.93L1332.97 552.93L1289.66 577.93L1246.36 552.93L1246.36 502.93zM1332.97 -47.07L1376.27 -22.07L1376.27 27.93L1332.97 52.93L1289.66 27.93L1289.66 -22.07zM1376.27 177.93L1419.57 202.93L1419.57 252.93L1376.27 277.93L1332.97 252.93L1332.97 202.93zM1332.97 252.93L1376.27 277.93L1376.27 327.93L1332.97 352.93L1289.66 327.93L1289.66 277.93zM1376.27 327.93L1419.57 352.93L1419.57 402.93L1376.27 427.93L1332.97 402.93L1332.97 352.93zM1419.57 102.93L1462.87 127.93L1462.87 177.93L1419.57 202.93L1376.27 177.93L1376.27 127.93zM1462.87 177.93L1506.18 202.93L1506.18 252.93L1462.87 277.93L1419.57 252.93L1419.57 202.93zM1419.57 252.93L1462.87 277.93L1462.87 327.93L1419.57 352.93L1376.27 327.93L1376.27 277.93zM1419.57 402.93L1462.87 427.93L1462.87 477.93L1419.57 502.93L1376.27 477.93L1376.27 427.93z" stroke="rgba(255, 107, 107, 1)" stroke-width="2"></path></g><defs><mask id="SvgjsMask1003"><rect width="1440" height="560" fill="#ffffff"></rect></mask></defs></svg>